# xmcd
#
# Track frame offsets:
# 150
# 11106
# 25935
# 42422
# 56369
# 69316
# 81141
# 94358
# 105867
# 117999
# 131781
# 145403
# 160748
# 172042
#
# Disc length: 2445 seconds
#
#
# Revision: 1
# Processed by: cddbd v1.5.2PL0 Copyright (c) Steve Scherf et al.
# Submitted via: FreeRIP 2.944 
#
DISCID=bb098b0e
DTITLE=Paberky Marko Cermaka - Od Yukonu k Ontariu
DYEAR=1991
DGENRE=Country
TTITLE0=Hoganovo jezero
TTITLE1=Narek divky
TTITLE2=Sally Greer
TTITLE3=Saskatchewan
TTITLE4=Snezni hadi
TTITLE5=Zkaza mestecka Frank
TTITLE6=Stiny Irokezu
TTITLE7=Drevorubecka abeceda
TTITLE8=Pod kotel prikladej
TTITLE9=Franklinova expedice
TTITLE10=Briga Polina
TTITLE11=Huronska koleda
TTITLE12=Klondike
TTITLE13=Cervenec 1954
EXTD=YEAR: 1991
EXTT0=
EXTT1=
EXTT2=
EXTT3=
EXTT4=
EXTT5=
EXTT6=
EXTT7=
EXTT8=
EXTT9=
EXTT10=
EXTT11=
EXTT12=
EXTT13=
PLAYORDER=
